<svg viewBox="0 0 20.0001 18.4077" fill="none" xmlns="http://www.w3.org/2000/svg">
<g id="Group 1948754842">
<path id="Union" d="M12.5315 0C14.277 0.000135894 15.7131 1.39502 15.7131 3.14062C15.7131 3.78627 15.5818 4.82803 14.8684 6.05762C14.5636 6.58287 14.1561 7.13497 13.6164 7.70117C14.4564 7.57154 15.1948 7.55712 15.8401 7.62012C17.255 7.75831 18.178 8.25988 18.7024 8.63672C20.1198 9.65549 20.4142 11.6352 19.3957 13.0527C18.8544 13.806 18.0013 14.1507 17.383 14.3145C17.2582 14.3475 17.1373 14.3744 17.0246 14.3965C17.0397 14.5102 17.0523 14.6329 17.0608 14.7617C17.1027 15.3999 17.0485 16.3189 16.5071 17.0723C15.4883 18.4894 13.5183 18.8415 12.1008 17.8232C11.5765 17.4464 10.807 16.7315 10.2248 15.4346C10.1456 15.2579 10.07 15.0713 9.99925 14.874C9.92859 15.0711 9.85481 15.2581 9.77562 15.4346C9.19345 16.7315 8.42395 17.4464 7.89964 17.8232C6.48205 18.8419 4.51116 18.4897 3.49242 17.0723C2.95097 16.3189 2.89674 15.3999 2.93871 14.7617C2.94718 14.6329 2.95982 14.5102 2.97484 14.3965C2.86227 14.3745 2.74216 14.3475 2.61742 14.3145C1.99917 14.1508 1.14519 13.8061 0.603744 13.0527C-0.414592 11.6352 -0.119375 9.65539 1.29808 8.63672C1.82247 8.25991 2.74476 7.75832 4.15941 7.62012C4.83872 7.55378 5.62132 7.57321 6.51683 7.72266C5.96721 7.14908 5.55392 6.58938 5.24535 6.05762C4.53188 4.82804 4.40064 3.78636 4.40062 3.14062C4.40067 1.39493 5.8366 0 7.58226 0C8.50996 6.42432e-05 9.28777 0.491952 9.78148 0.898438C9.88116 0.98051 9.97325 1.06301 10.0569 1.1416C10.1405 1.06301 10.2326 0.98051 10.3323 0.898438C10.826 0.491967 11.6039 0 12.5315 0Z" fill="#FF3672"/>
</g>
</svg>
